solid 
 facet normal -0.000000e+00  0.000000e+00  1.000000e+00
   outer loop
     vertex  1.700000e+00  3.150000e+00  1.500000e+00
     vertex  1.273000e+01  0.000000e+00  1.500000e+00
     vertex  1.273000e+01  3.150000e+00  1.500000e+00
   endloop
 endfacet
 facet normal  0.000000e+00  0.000000e+00  1.000000e+00
   outer loop
     vertex  1.700000e+00  3.150000e+00  1.500000e+00
     vertex  0.000000e+00  0.000000e+00  1.500000e+00
     vertex  1.273000e+01  0.000000e+00  1.500000e+00
   endloop
 endfacet
 facet normal -0.000000e+00  0.000000e+00  1.000000e+00
   outer loop
     vertex  0.000000e+00  4.150000e+00  1.500000e+00
     vertex  1.700000e+00  3.150000e+00  1.500000e+00
     vertex  1.700000e+00  4.150000e+00  1.500000e+00
   endloop
 endfacet
 facet normal  0.000000e+00  0.000000e+00  1.000000e+00
   outer loop
     vertex  0.000000e+00  4.150000e+00  1.500000e+00
     vertex  0.000000e+00  0.000000e+00  1.500000e+00
     vertex  1.700000e+00  3.150000e+00  1.500000e+00
   endloop
 endfacet
endsolid
