solid 
 facet normal -1.000000e+00  0.000000e+00 -0.000000e+00
   outer loop
     vertex  0.000000e+00  1.637637e+00  7.067646e-01
     vertex  0.000000e+00  4.150000e+00  0.000000e+00
     vertex  0.000000e+00  1.625470e+00  6.930308e-01
   endloop
 endfacet
 facet normal -1.000000e+00  0.000000e+00  0.000000e+00
   outer loop
     vertex  0.000000e+00  1.610370e+00  6.826079e-01
     vertex  0.000000e+00  1.625470e+00  6.930308e-01
     vertex  0.000000e+00  4.150000e+00  0.000000e+00
   endloop
 endfacet
 facet normal -1.000000e+00  0.000000e+00 -0.000000e+00
   outer loop
     vertex  0.000000e+00  1.646164e+00  7.230110e-01
     vertex  0.000000e+00  4.150000e+00  0.000000e+00
     vertex  0.000000e+00  1.637637e+00  7.067646e-01
   endloop
 endfacet
 facet normal -1.000000e+00  0.000000e+00  0.000000e+00
   outer loop
     vertex  0.000000e+00  1.593214e+00  6.761016e-01
     vertex  0.000000e+00  1.610370e+00  6.826079e-01
     vertex  0.000000e+00  4.150000e+00  0.000000e+00
   endloop
 endfacet
 facet normal -1.000000e+00  0.000000e+00 -0.000000e+00
   outer loop
     vertex  0.000000e+00  1.650555e+00  7.408260e-01
     vertex  0.000000e+00  4.150000e+00  0.000000e+00
     vertex  0.000000e+00  1.646164e+00  7.230110e-01
   endloop
 endfacet
 facet normal -1.000000e+00  0.000000e+00  0.000000e+00
   outer loop
     vertex  0.000000e+00  1.650555e+00  7.591740e-01
     vertex  0.000000e+00  4.150000e+00  1.500000e+00
     vertex  0.000000e+00  4.150000e+00  0.000000e+00
   endloop
 endfacet
 facet normal -1.000000e+00  0.000000e+00  0.000000e+00
   outer loop
     vertex  0.000000e+00  1.650555e+00  7.591740e-01
     vertex  0.000000e+00  4.150000e+00  0.000000e+00
     vertex  0.000000e+00  1.650555e+00  7.408260e-01
   endloop
 endfacet
 facet normal -1.000000e+00  0.000000e+00  0.000000e+00
   outer loop
     vertex  0.000000e+00  1.646164e+00  7.769890e-01
     vertex  0.000000e+00  4.150000e+00  1.500000e+00
     vertex  0.000000e+00  1.650555e+00  7.591740e-01
   endloop
 endfacet
 facet normal -1.000000e+00  0.000000e+00  0.000000e+00
   outer loop
     vertex  0.000000e+00  1.637637e+00  7.932354e-01
     vertex  0.000000e+00  4.150000e+00  1.500000e+00
     vertex  0.000000e+00  1.646164e+00  7.769890e-01
   endloop
 endfacet
 facet normal -1.000000e+00  0.000000e+00  0.000000e+00
   outer loop
     vertex  0.000000e+00  1.625470e+00  8.069692e-01
     vertex  0.000000e+00  4.150000e+00  1.500000e+00
     vertex  0.000000e+00  1.637637e+00  7.932354e-01
   endloop
 endfacet
 facet normal -1.000000e+00  0.000000e+00  0.000000e+00
   outer loop
     vertex  0.000000e+00  1.610370e+00  8.173921e-01
     vertex  0.000000e+00  4.150000e+00  1.500000e+00
     vertex  0.000000e+00  1.625470e+00  8.069692e-01
   endloop
 endfacet
 facet normal -1.000000e+00  0.000000e+00  0.000000e+00
   outer loop
     vertex  0.000000e+00  1.593214e+00  8.238984e-01
     vertex  0.000000e+00  4.150000e+00  1.500000e+00
     vertex  0.000000e+00  1.610370e+00  8.173921e-01
   endloop
 endfacet
 facet normal -1.000000e+00  0.000000e+00  0.000000e+00
   outer loop
     vertex  0.000000e+00  0.000000e+00  0.000000e+00
     vertex  0.000000e+00  1.499445e+00  7.591740e-01
     vertex  0.000000e+00  1.499445e+00  7.408260e-01
   endloop
 endfacet
 facet normal -1.000000e+00  0.000000e+00  0.000000e+00
   outer loop
     vertex  0.000000e+00  0.000000e+00  0.000000e+00
     vertex  0.000000e+00  1.499445e+00  7.408260e-01
     vertex  0.000000e+00  1.503836e+00  7.230110e-01
   endloop
 endfacet
 facet normal -1.000000e+00  0.000000e+00  0.000000e+00
   outer loop
     vertex  0.000000e+00  0.000000e+00  0.000000e+00
     vertex  0.000000e+00  1.503836e+00  7.230110e-01
     vertex  0.000000e+00  1.512363e+00  7.067646e-01
   endloop
 endfacet
 facet normal -1.000000e+00  0.000000e+00  0.000000e+00
   outer loop
     vertex  0.000000e+00  0.000000e+00  0.000000e+00
     vertex  0.000000e+00  1.512363e+00  7.067646e-01
     vertex  0.000000e+00  1.524530e+00  6.930308e-01
   endloop
 endfacet
 facet normal -1.000000e+00  0.000000e+00  0.000000e+00
   outer loop
     vertex  0.000000e+00  0.000000e+00  0.000000e+00
     vertex  0.000000e+00  1.524530e+00  6.930308e-01
     vertex  0.000000e+00  1.539630e+00  6.826079e-01
   endloop
 endfacet
 facet normal -1.000000e+00  0.000000e+00  0.000000e+00
   outer loop
     vertex  0.000000e+00  0.000000e+00  0.000000e+00
     vertex  0.000000e+00  1.539630e+00  6.826079e-01
     vertex  0.000000e+00  1.556786e+00  6.761016e-01
   endloop
 endfacet
 facet normal -1.000000e+00  0.000000e+00  0.000000e+00
   outer loop
     vertex  0.000000e+00  0.000000e+00  0.000000e+00
     vertex  0.000000e+00  1.556786e+00  6.761016e-01
     vertex  0.000000e+00  1.575000e+00  6.738900e-01
   endloop
 endfacet
 facet normal -1.000000e+00  0.000000e+00  0.000000e+00
   outer loop
     vertex  0.000000e+00  0.000000e+00  0.000000e+00
     vertex  0.000000e+00  1.575000e+00  6.738900e-01
     vertex  0.000000e+00  1.593214e+00  6.761016e-01
   endloop
 endfacet
 facet normal -1.000000e+00  0.000000e+00  0.000000e+00
   outer loop
     vertex  0.000000e+00  0.000000e+00  0.000000e+00
     vertex  0.000000e+00  1.593214e+00  6.761016e-01
     vertex  0.000000e+00  4.150000e+00  0.000000e+00
   endloop
 endfacet
 facet normal -1.000000e+00  0.000000e+00  0.000000e+00
   outer loop
     vertex  0.000000e+00  0.000000e+00  1.500000e+00
     vertex  0.000000e+00  1.575000e+00  8.261100e-01
     vertex  0.000000e+00  1.556786e+00  8.238984e-01
   endloop
 endfacet
 facet normal -1.000000e+00  0.000000e+00  0.000000e+00
   outer loop
     vertex  0.000000e+00  0.000000e+00  1.500000e+00
     vertex  0.000000e+00  1.556786e+00  8.238984e-01
     vertex  0.000000e+00  1.539630e+00  8.173921e-01
   endloop
 endfacet
 facet normal -1.000000e+00  0.000000e+00  0.000000e+00
   outer loop
     vertex  0.000000e+00  0.000000e+00  1.500000e+00
     vertex  0.000000e+00  1.539630e+00  8.173921e-01
     vertex  0.000000e+00  1.524530e+00  8.069692e-01
   endloop
 endfacet
 facet normal -1.000000e+00  0.000000e+00  0.000000e+00
   outer loop
     vertex  0.000000e+00  0.000000e+00  1.500000e+00
     vertex  0.000000e+00  1.524530e+00  8.069692e-01
     vertex  0.000000e+00  1.512363e+00  7.932354e-01
   endloop
 endfacet
 facet normal -1.000000e+00  0.000000e+00  0.000000e+00
   outer loop
     vertex  0.000000e+00  0.000000e+00  1.500000e+00
     vertex  0.000000e+00  1.512363e+00  7.932354e-01
     vertex  0.000000e+00  1.503836e+00  7.769890e-01
   endloop
 endfacet
 facet normal -1.000000e+00  0.000000e+00  0.000000e+00
   outer loop
     vertex  0.000000e+00  0.000000e+00  1.500000e+00
     vertex  0.000000e+00  1.503836e+00  7.769890e-01
     vertex  0.000000e+00  1.499445e+00  7.591740e-01
   endloop
 endfacet
 facet normal -1.000000e+00  0.000000e+00  0.000000e+00
   outer loop
     vertex  0.000000e+00  0.000000e+00  1.500000e+00
     vertex  0.000000e+00  1.593214e+00  8.238984e-01
     vertex  0.000000e+00  1.575000e+00  8.261100e-01
   endloop
 endfacet
 facet normal -1.000000e+00  0.000000e+00  0.000000e+00
   outer loop
     vertex  0.000000e+00  0.000000e+00  1.500000e+00
     vertex  0.000000e+00  1.499445e+00  7.591740e-01
     vertex  0.000000e+00  0.000000e+00  0.000000e+00
   endloop
 endfacet
 facet normal -1.000000e+00  0.000000e+00  0.000000e+00
   outer loop
     vertex  0.000000e+00  0.000000e+00  1.500000e+00
     vertex  0.000000e+00  4.150000e+00  1.500000e+00
     vertex  0.000000e+00  1.593214e+00  8.238984e-01
   endloop
 endfacet
 facet normal  1.094614e-01  9.934182e-03 -9.939414e-01
   outer loop
     vertex  7.921637e+00  1.575156e+00 -2.526577e+00
     vertex  1.103000e+01  0.000000e+00 -2.200000e+00
     vertex  4.810000e+00  0.000000e+00 -2.885000e+00
   endloop
 endfacet
 facet normal  1.044887e-01  0.000000e+00 -9.945261e-01
   outer loop
     vertex  7.921637e+00  1.575156e+00 -2.526577e+00
     vertex  1.103000e+01  3.150000e+00 -2.200000e+00
     vertex  1.103000e+01  0.000000e+00 -2.200000e+00
   endloop
 endfacet
 facet normal  9.949880e-02  9.944645e-03 -9.949880e-01
   outer loop
     vertex  7.921637e+00  1.575156e+00 -2.526577e+00
     vertex  4.810000e+00  3.150000e+00 -2.822000e+00
     vertex  1.103000e+01  3.150000e+00 -2.200000e+00
   endloop
 endfacet
 facet normal  1.044680e-01  1.988659e-02 -9.943294e-01
   outer loop
     vertex  7.921637e+00  1.575156e+00 -2.526577e+00
     vertex  4.810000e+00  0.000000e+00 -2.885000e+00
     vertex  4.810000e+00  3.150000e+00 -2.822000e+00
   endloop
 endfacet
 facet normal -0.000000e+00  0.000000e+00 -1.000000e+00
   outer loop
     vertex  1.273000e+01  3.150000e+00  3.000000e-01
     vertex  1.103000e+01  0.000000e+00  3.000000e-01
     vertex  1.103000e+01  3.150000e+00  3.000000e-01
   endloop
 endfacet
 facet normal  0.000000e+00 -0.000000e+00 -1.000000e+00
   outer loop
     vertex  1.273000e+01  3.150000e+00  3.000000e-01
     vertex  1.273000e+01  0.000000e+00  3.000000e-01
     vertex  1.103000e+01  0.000000e+00  3.000000e-01
   endloop
 endfacet
 facet normal  0.000000e+00 -1.000000e+00  0.000000e+00
   outer loop
     vertex  1.700000e+00  0.000000e+00  0.000000e+00
     vertex  0.000000e+00  0.000000e+00  1.500000e+00
     vertex  0.000000e+00  0.000000e+00  0.000000e+00
   endloop
 endfacet
 facet normal -2.291741e-15 -1.000000e+00 -9.898880e-15
   outer loop
     vertex  4.751363e+00 -5.563310e-16 -2.850235e+00
     vertex  1.700000e+00  0.000000e+00 -2.200000e+00
     vertex  4.763530e+00 -4.482660e-16 -2.863969e+00
   endloop
 endfacet
 facet normal -4.278579e-15 -1.000000e+00 -1.906608e-14
   outer loop
     vertex  4.778630e+00 -3.141494e-16 -2.874392e+00
     vertex  4.763530e+00 -4.482660e-16 -2.863969e+00
     vertex  1.700000e+00  0.000000e+00 -2.200000e+00
   endloop
 endfacet
 facet normal -1.323725e-15 -1.000000e+00 -5.356264e-15
   outer loop
     vertex  4.742836e+00 -6.320641e-16 -2.833989e+00
     vertex  1.700000e+00  0.000000e+00 -2.200000e+00
     vertex  4.751363e+00 -5.563310e-16 -2.850235e+00
   endloop
 endfacet
 facet normal -6.997815e-16 -1.000000e+00 -2.361644e-15
   outer loop
     vertex  4.738445e+00 -6.710638e-16 -2.816174e+00
     vertex  1.700000e+00  0.000000e+00 -2.200000e+00
     vertex  4.742836e+00 -6.320641e-16 -2.833989e+00
   endloop
 endfacet
 facet normal  7.065984e-15 -1.000000e+00 -1.495446e-14
   outer loop
     vertex  4.814000e+00 -6.831873e-31 -2.883110e+00
     vertex  4.795786e+00 -1.617756e-16 -2.880898e+00
     vertex  4.810000e+00  0.000000e+00 -2.885000e+00
   endloop
 endfacet
 facet normal -2.208577e-16 -1.000000e+00 -0.000000e+00
   outer loop
     vertex  4.738445e+00 -6.710638e-16 -2.797826e+00
     vertex  1.700000e+00  0.000000e+00 -2.200000e+00
     vertex  4.738445e+00 -6.710638e-16 -2.816174e+00
   endloop
 endfacet
 facet normal  1.195359e-14 -1.000000e+00 -2.529861e-14
   outer loop
     vertex  4.832214e+00  1.617756e-16 -2.880898e+00
     vertex  4.814000e+00 -6.831873e-31 -2.883110e+00
     vertex  4.810000e+00  0.000000e+00 -2.885000e+00
   endloop
 endfacet
 facet normal  2.001618e-16 -1.000000e+00  2.139828e-15
   outer loop
     vertex  4.742836e+00 -6.320641e-16 -2.780011e+00
     vertex  1.700000e+00  0.000000e+00 -2.200000e+00
     vertex  4.738445e+00 -6.710638e-16 -2.797826e+00
   endloop
 endfacet
 facet normal  6.189168e-16 -1.000000e+00  4.336687e-15
   outer loop
     vertex  4.751363e+00 -5.563310e-16 -2.763765e+00
     vertex  1.700000e+00  0.000000e+00 -2.200000e+00
     vertex  4.742836e+00 -6.320641e-16 -2.780011e+00
   endloop
 endfacet
 facet normal -1.463234e-16 -1.000000e+00  0.000000e+00
   outer loop
     vertex  4.763530e+00 -4.482660e-16 -2.750031e+00
     vertex  1.700000e+00  0.000000e+00  0.000000e+00
     vertex  1.700000e+00  0.000000e+00 -2.200000e+00
   endloop
 endfacet
 facet normal  1.092620e-15 -1.000000e+00  6.900597e-15
   outer loop
     vertex  4.763530e+00 -4.482660e-16 -2.750031e+00
     vertex  1.700000e+00  0.000000e+00 -2.200000e+00
     vertex  4.751363e+00 -5.563310e-16 -2.763765e+00
   endloop
 endfacet
 facet normal  4.957366e-15 -1.000000e+00  5.685501e-15
   outer loop
     vertex  4.778630e+00 -3.141494e-16 -2.739608e+00
     vertex  1.700000e+00  0.000000e+00  0.000000e+00
     vertex  4.763530e+00 -4.482660e-16 -2.750031e+00
   endloop
 endfacet
 facet normal  6.197174e-15 -1.000000e+00  7.078734e-15
   outer loop
     vertex  4.795786e+00 -1.617756e-16 -2.733102e+00
     vertex  1.700000e+00  0.000000e+00  0.000000e+00
     vertex  4.778630e+00 -3.141494e-16 -2.739608e+00
   endloop
 endfacet
 facet normal  7.801605e-15 -1.000000e+00  8.896074e-15
   outer loop
     vertex  4.814000e+00  0.000000e+00 -2.730890e+00
     vertex  1.700000e+00  0.000000e+00  0.000000e+00
     vertex  4.795786e+00 -1.617756e-16 -2.733102e+00
   endloop
 endfacet
 facet normal  1.030915e-14 -1.000000e+00  1.175539e-14
   outer loop
     vertex  4.832214e+00  1.617756e-16 -2.733102e+00
     vertex  1.700000e+00  0.000000e+00  0.000000e+00
     vertex  4.814000e+00  0.000000e+00 -2.730890e+00
   endloop
 endfacet
 facet normal -3.658902e-15 -1.000000e+00  3.306707e-14
   outer loop
     vertex  1.103000e+01  0.000000e+00 -2.200000e+00
     vertex  4.849370e+00  3.141494e-16 -2.874392e+00
     vertex  4.832214e+00  1.617756e-16 -2.880898e+00
   endloop
 endfacet
 facet normal -1.728010e-15 -1.000000e+00  1.537094e-14
   outer loop
     vertex  1.103000e+01  0.000000e+00 -2.200000e+00
     vertex  4.864470e+00  4.482660e-16 -2.863969e+00
     vertex  4.849370e+00  3.141494e-16 -2.874392e+00
   endloop
 endfacet
 facet normal -1.017114e-15 -1.000000e+00  8.769659e-15
   outer loop
     vertex  1.103000e+01  0.000000e+00 -2.200000e+00
     vertex  4.876637e+00  5.563310e-16 -2.850235e+00
     vertex  4.864470e+00  4.482660e-16 -2.863969e+00
   endloop
 endfacet
 facet normal -6.172331e-16 -1.000000e+00  4.985469e-15
   outer loop
     vertex  1.103000e+01  0.000000e+00 -2.200000e+00
     vertex  4.885164e+00  6.320641e-16 -2.833989e+00
     vertex  4.876637e+00  5.563310e-16 -2.850235e+00
   endloop
 endfacet
 facet normal -3.373040e-16 -1.000000e+00  2.272301e-15
   outer loop
     vertex  1.103000e+01  0.000000e+00 -2.200000e+00
     vertex  4.889555e+00  6.710638e-16 -2.816174e+00
     vertex  4.885164e+00  6.320641e-16 -2.833989e+00
   endloop
 endfacet
 facet normal -1.092859e-16 -1.000000e+00  2.100540e-29
   outer loop
     vertex  1.103000e+01  0.000000e+00 -2.200000e+00
     vertex  4.889555e+00  6.710638e-16 -2.797826e+00
     vertex  4.889555e+00  6.710638e-16 -2.816174e+00
   endloop
 endfacet
 facet normal  1.014147e-16 -1.000000e+00 -2.164167e-15
   outer loop
     vertex  1.103000e+01  0.000000e+00 -2.200000e+00
     vertex  4.885164e+00  6.320641e-16 -2.780011e+00
     vertex  4.889555e+00  6.710638e-16 -2.797826e+00
   endloop
 endfacet
 facet normal  3.212264e-16 -1.000000e+00 -4.492927e-15
   outer loop
     vertex  1.103000e+01  0.000000e+00 -2.200000e+00
     vertex  4.876637e+00  5.563310e-16 -2.763765e+00
     vertex  4.885164e+00  6.320641e-16 -2.780011e+00
   endloop
 endfacet
 facet normal  2.655856e-15 -1.000000e+00 -5.515691e-15
   outer loop
     vertex  1.103000e+01  0.000000e+00  3.000000e-01
     vertex  4.864470e+00  4.482660e-16 -2.750031e+00
     vertex  4.876637e+00  5.563310e-16 -2.763765e+00
   endloop
 endfacet
 facet normal  3.665627e-15 -1.000000e+00 -7.556908e-15
   outer loop
     vertex  1.103000e+01  0.000000e+00  3.000000e-01
     vertex  4.849370e+00  3.141494e-16 -2.739608e+00
     vertex  4.864470e+00  4.482660e-16 -2.750031e+00
   endloop
 endfacet
 facet normal  4.992559e-15 -1.000000e+00 -1.025504e-14
   outer loop
     vertex  1.103000e+01  0.000000e+00  3.000000e-01
     vertex  4.832214e+00  1.617756e-16 -2.733102e+00
     vertex  4.849370e+00  3.141494e-16 -2.739608e+00
   endloop
 endfacet
 facet normal -0.000000e+00 -1.000000e+00  0.000000e+00
   outer loop
     vertex  1.103000e+01  0.000000e+00  3.000000e-01
     vertex  0.000000e+00  0.000000e+00  1.500000e+00
     vertex  1.700000e+00  0.000000e+00  0.000000e+00
   endloop
 endfacet
 facet normal -9.041089e-17 -1.000000e+00 -0.000000e+00
   outer loop
     vertex  1.103000e+01  0.000000e+00  3.000000e-01
     vertex  4.876637e+00  5.563310e-16 -2.763765e+00
     vertex  1.103000e+01  0.000000e+00 -2.200000e+00
   endloop
 endfacet
 facet normal  1.835613e-18 -1.000000e+00 -5.708755e-17
   outer loop
     vertex  1.103000e+01  0.000000e+00  3.000000e-01
     vertex  1.700000e+00  0.000000e+00  0.000000e+00
     vertex  4.832214e+00  1.617756e-16 -2.733102e+00
   endloop
 endfacet
 facet normal -0.000000e+00 -1.000000e+00  0.000000e+00
   outer loop
     vertex  1.273000e+01  0.000000e+00  1.500000e+00
     vertex  0.000000e+00  0.000000e+00  1.500000e+00
     vertex  1.103000e+01  0.000000e+00  3.000000e-01
   endloop
 endfacet
 facet normal  0.000000e+00 -1.000000e+00 -0.000000e+00
   outer loop
     vertex  1.273000e+01  0.000000e+00  1.500000e+00
     vertex  1.103000e+01  0.000000e+00  3.000000e-01
     vertex  1.273000e+01  0.000000e+00  3.000000e-01
   endloop
 endfacet
 facet normal -1.076382e-14 -1.000000e+00  9.773861e-14
   outer loop
     vertex  1.103000e+01  0.000000e+00 -2.200000e+00
     vertex  4.832214e+00  1.617756e-16 -2.880898e+00
     vertex  4.810000e+00  0.000000e+00 -2.885000e+00
   endloop
 endfacet
 facet normal -3.670353e-14 -1.000000e+00 -1.666394e-13
   outer loop
     vertex  4.810000e+00  0.000000e+00 -2.885000e+00
     vertex  4.795786e+00 -1.617756e-16 -2.880898e+00
     vertex  1.700000e+00  0.000000e+00 -2.200000e+00
   endloop
 endfacet
 facet normal -1.238689e-14 -1.000000e+00 -5.608089e-14
   outer loop
     vertex  4.795786e+00 -1.617756e-16 -2.880898e+00
     vertex  4.778630e+00 -3.141494e-16 -2.874392e+00
     vertex  1.700000e+00  0.000000e+00 -2.200000e+00
   endloop
 endfacet
 facet normal  1.000000e+00  0.000000e+00  0.000000e+00
   outer loop
     vertex  1.103000e+01  0.000000e+00 -2.200000e+00
     vertex  1.103000e+01  3.150000e+00  3.000000e-01
     vertex  1.103000e+01  0.000000e+00  3.000000e-01
   endloop
 endfacet
 facet normal  1.000000e+00  0.000000e+00  0.000000e+00
   outer loop
     vertex  1.103000e+01  0.000000e+00 -2.200000e+00
     vertex  1.103000e+01  3.150000e+00 -2.200000e+00
     vertex  1.103000e+01  3.150000e+00  3.000000e-01
   endloop
 endfacet
 facet normal  0.000000e+00 -0.000000e+00 -1.000000e+00
   outer loop
     vertex  1.700000e+00  3.150000e+00  0.000000e+00
     vertex  1.700000e+00  0.000000e+00  0.000000e+00
     vertex  0.000000e+00  0.000000e+00  0.000000e+00
   endloop
 endfacet
 facet normal  0.000000e+00  0.000000e+00 -1.000000e+00
   outer loop
     vertex  0.000000e+00  4.150000e+00  0.000000e+00
     vertex  1.700000e+00  4.150000e+00  0.000000e+00
     vertex  1.700000e+00  3.150000e+00  0.000000e+00
   endloop
 endfacet
 facet normal  0.000000e+00  0.000000e+00 -1.000000e+00
   outer loop
     vertex  0.000000e+00  4.150000e+00  0.000000e+00
     vertex  1.700000e+00  3.150000e+00  0.000000e+00
     vertex  0.000000e+00  0.000000e+00  0.000000e+00
   endloop
 endfacet
 facet normal -1.000000e+00  0.000000e+00  0.000000e+00
   outer loop
     vertex  1.700000e+00  0.000000e+00  0.000000e+00
     vertex  1.700000e+00  3.150000e+00 -2.200000e+00
     vertex  1.700000e+00  0.000000e+00 -2.200000e+00
   endloop
 endfacet
 facet normal -1.000000e+00  0.000000e+00  0.000000e+00
   outer loop
     vertex  1.700000e+00  0.000000e+00  0.000000e+00
     vertex  1.700000e+00  3.150000e+00  0.000000e+00
     vertex  1.700000e+00  3.150000e+00 -2.200000e+00
   endloop
 endfacet
 facet normal  0.000000e+00  1.000000e+00  0.000000e+00
   outer loop
     vertex  4.810000e+00  3.150000e+00 -2.822000e+00
     vertex  1.700000e+00  3.150000e+00  0.000000e+00
     vertex  1.700000e+00  3.150000e+00  1.500000e+00
   endloop
 endfacet
 facet normal  0.000000e+00  1.000000e+00  0.000000e+00
   outer loop
     vertex  4.810000e+00  3.150000e+00 -2.822000e+00
     vertex  1.700000e+00  3.150000e+00 -2.200000e+00
     vertex  1.700000e+00  3.150000e+00  0.000000e+00
   endloop
 endfacet
 facet normal  0.000000e+00  1.000000e+00  0.000000e+00
   outer loop
     vertex  1.103000e+01  3.150000e+00  3.000000e-01
     vertex  4.810000e+00  3.150000e+00 -2.822000e+00
     vertex  1.700000e+00  3.150000e+00  1.500000e+00
   endloop
 endfacet
 facet normal  0.000000e+00  1.000000e+00  0.000000e+00
   outer loop
     vertex  1.273000e+01  3.150000e+00  1.500000e+00
     vertex  1.103000e+01  3.150000e+00  3.000000e-01
     vertex  1.700000e+00  3.150000e+00  1.500000e+00
   endloop
 endfacet
 facet normal  0.000000e+00  1.000000e+00 -0.000000e+00
   outer loop
     vertex  1.273000e+01  3.150000e+00  3.000000e-01
     vertex  1.103000e+01  3.150000e+00  3.000000e-01
     vertex  1.273000e+01  3.150000e+00  1.500000e+00
   endloop
 endfacet
 facet normal  0.000000e+00  1.000000e+00 -0.000000e+00
   outer loop
     vertex  1.103000e+01  3.150000e+00 -2.200000e+00
     vertex  4.810000e+00  3.150000e+00 -2.822000e+00
     vertex  1.103000e+01  3.150000e+00  3.000000e-01
   endloop
 endfacet
 facet normal -2.150912e-01  9.745547e-03 -9.765453e-01
   outer loop
     vertex  3.251831e+00  1.575151e+00 -2.526083e+00
     vertex  4.810000e+00  0.000000e+00 -2.885000e+00
     vertex  1.700000e+00  0.000000e+00 -2.200000e+00
   endloop
 endfacet
 facet normal -2.055975e-01  1.956882e-02 -9.784410e-01
   outer loop
     vertex  3.251831e+00  1.575151e+00 -2.526083e+00
     vertex  4.810000e+00  3.150000e+00 -2.822000e+00
     vertex  4.810000e+00  0.000000e+00 -2.885000e+00
   endloop
 endfacet
 facet normal -1.961067e-01  9.785356e-03 -9.805337e-01
   outer loop
     vertex  3.251831e+00  1.575151e+00 -2.526083e+00
     vertex  1.700000e+00  3.150000e+00 -2.200000e+00
     vertex  4.810000e+00  3.150000e+00 -2.822000e+00
   endloop
 endfacet
 facet normal -2.056369e-01  0.000000e+00 -9.786284e-01
   outer loop
     vertex  3.251831e+00  1.575151e+00 -2.526083e+00
     vertex  1.700000e+00  0.000000e+00 -2.200000e+00
     vertex  1.700000e+00  3.150000e+00 -2.200000e+00
   endloop
 endfacet
 facet normal  1.000000e+00  0.000000e+00  0.000000e+00
   outer loop
     vertex  1.700000e+00  3.150000e+00  0.000000e+00
     vertex  1.700000e+00  4.150000e+00  1.500000e+00
     vertex  1.700000e+00  3.150000e+00  1.500000e+00
   endloop
 endfacet
 facet normal  1.000000e+00  0.000000e+00  0.000000e+00
   outer loop
     vertex  1.700000e+00  3.150000e+00  0.000000e+00
     vertex  1.700000e+00  4.150000e+00  0.000000e+00
     vertex  1.700000e+00  4.150000e+00  1.500000e+00
   endloop
 endfacet
 facet normal  1.000000e+00 -3.118579e-15 -2.762820e-15
   outer loop
     vertex  1.273000e+01  1.660763e+00  6.091980e-01
     vertex  1.273000e+01  3.150000e+00  1.500000e+00
     vertex  1.273000e+01  1.644104e+00  6.280023e-01
   endloop
 endfacet
 facet normal  1.000000e+00 -2.565875e-15 -3.717311e-15
   outer loop
     vertex  1.273000e+01  1.623429e+00  6.422734e-01
     vertex  1.273000e+01  1.644104e+00  6.280023e-01
     vertex  1.273000e+01  3.150000e+00  1.500000e+00
   endloop
 endfacet
 facet normal  1.000000e+00 -4.808886e-15  0.000000e+00
   outer loop
     vertex  1.273000e+01  1.672438e+00  5.869534e-01
     vertex  1.273000e+01  3.150000e+00  3.000000e-01
     vertex  1.273000e+01  3.150000e+00  1.500000e+00
   endloop
 endfacet
 facet normal  1.000000e+00 -3.631210e-15 -1.905806e-15
   outer loop
     vertex  1.273000e+01  1.672438e+00  5.869534e-01
     vertex  1.273000e+01  3.150000e+00  1.500000e+00
     vertex  1.273000e+01  1.660763e+00  6.091980e-01
   endloop
 endfacet
 facet normal  1.000000e+00 -1.875669e-15 -4.945732e-15
   outer loop
     vertex  1.273000e+01  1.599939e+00  6.511818e-01
     vertex  1.273000e+01  1.623429e+00  6.422734e-01
     vertex  1.273000e+01  3.150000e+00  1.500000e+00
   endloop
 endfacet
 facet normal  1.000000e+00 -5.050650e-15 -1.244873e-15
   outer loop
     vertex  1.273000e+01  1.678450e+00  5.625611e-01
     vertex  1.273000e+01  3.150000e+00  3.000000e-01
     vertex  1.273000e+01  1.672438e+00  5.869534e-01
   endloop
 endfacet
 facet normal  1.000000e+00  5.746867e-14 -1.133168e-13
   outer loop
     vertex  1.273000e+01  1.575000e+00  6.542100e-01
     vertex  1.273000e+01  1.599939e+00  6.511818e-01
     vertex  1.273000e+01  3.150000e+00  1.500000e+00
   endloop
 endfacet
 facet normal  1.000000e+00 -4.828533e-15  4.267729e-29
   outer loop
     vertex  1.273000e+01  1.678450e+00  5.374389e-01
     vertex  1.273000e+01  3.150000e+00  3.000000e-01
     vertex  1.273000e+01  1.678450e+00  5.625611e-01
   endloop
 endfacet
 facet normal  1.000000e+00 -4.643848e-15  1.144606e-15
   outer loop
     vertex  1.273000e+01  1.672438e+00  5.130466e-01
     vertex  1.273000e+01  3.150000e+00  3.000000e-01
     vertex  1.273000e+01  1.678450e+00  5.374389e-01
   endloop
 endfacet
 facet normal  1.000000e+00 -4.470573e-15  2.346338e-15
   outer loop
     vertex  1.273000e+01  1.660763e+00  4.908020e-01
     vertex  1.273000e+01  3.150000e+00  3.000000e-01
     vertex  1.273000e+01  1.672438e+00  5.130466e-01
   endloop
 endfacet
 facet normal  1.000000e+00 -4.284837e-15  3.796034e-15
   outer loop
     vertex  1.273000e+01  1.644104e+00  4.719977e-01
     vertex  1.273000e+01  3.150000e+00  3.000000e-01
     vertex  1.273000e+01  1.660763e+00  4.908020e-01
   endloop
 endfacet
 facet normal  1.000000e+00 -4.048497e-15  5.865261e-15
   outer loop
     vertex  1.273000e+01  1.623429e+00  4.577266e-01
     vertex  1.273000e+01  3.150000e+00  3.000000e-01
     vertex  1.273000e+01  1.644104e+00  4.719977e-01
   endloop
 endfacet
 facet normal  1.000000e+00 -3.657949e-15  9.645219e-15
   outer loop
     vertex  1.273000e+01  1.599939e+00  4.488182e-01
     vertex  1.273000e+01  3.150000e+00  3.000000e-01
     vertex  1.273000e+01  1.623429e+00  4.577266e-01
   endloop
 endfacet
 facet normal  1.000000e+00 -5.746867e-14 -1.133168e-13
   outer loop
     vertex  1.273000e+01  0.000000e+00  1.500000e+00
     vertex  1.273000e+01  1.550061e+00  6.511818e-01
     vertex  1.273000e+01  1.575000e+00  6.542100e-01
   endloop
 endfacet
 facet normal  1.000000e+00  1.875669e-15 -4.945732e-15
   outer loop
     vertex  1.273000e+01  0.000000e+00  1.500000e+00
     vertex  1.273000e+01  1.526571e+00  6.422734e-01
     vertex  1.273000e+01  1.550061e+00  6.511818e-01
   endloop
 endfacet
 facet normal  1.000000e+00  2.565875e-15 -3.717311e-15
   outer loop
     vertex  1.273000e+01  0.000000e+00  1.500000e+00
     vertex  1.273000e+01  1.505896e+00  6.280023e-01
     vertex  1.273000e+01  1.526571e+00  6.422734e-01
   endloop
 endfacet
 facet normal  1.000000e+00  3.118579e-15 -2.762820e-15
   outer loop
     vertex  1.273000e+01  0.000000e+00  1.500000e+00
     vertex  1.273000e+01  1.489237e+00  6.091980e-01
     vertex  1.273000e+01  1.505896e+00  6.280023e-01
   endloop
 endfacet
 facet normal  1.000000e+00  3.631210e-15 -1.905806e-15
   outer loop
     vertex  1.273000e+01  0.000000e+00  1.500000e+00
     vertex  1.273000e+01  1.477562e+00  5.869534e-01
     vertex  1.273000e+01  1.489237e+00  6.091980e-01
   endloop
 endfacet
 facet normal  1.000000e+00  0.000000e+00 -6.300702e-15
   outer loop
     vertex  1.273000e+01  0.000000e+00  1.500000e+00
     vertex  1.273000e+01  1.575000e+00  6.542100e-01
     vertex  1.273000e+01  3.150000e+00  1.500000e+00
   endloop
 endfacet
 facet normal  1.000000e+00  5.050650e-15 -1.244873e-15
   outer loop
     vertex  1.273000e+01  0.000000e+00  3.000000e-01
     vertex  1.273000e+01  1.471550e+00  5.625611e-01
     vertex  1.273000e+01  1.477562e+00  5.869534e-01
   endloop
 endfacet
 facet normal  1.000000e+00  4.828533e-15  0.000000e+00
   outer loop
     vertex  1.273000e+01  0.000000e+00  3.000000e-01
     vertex  1.273000e+01  1.471550e+00  5.374389e-01
     vertex  1.273000e+01  1.471550e+00  5.625611e-01
   endloop
 endfacet
 facet normal  1.000000e+00  4.643848e-15  1.144606e-15
   outer loop
     vertex  1.273000e+01  0.000000e+00  3.000000e-01
     vertex  1.273000e+01  1.477562e+00  5.130466e-01
     vertex  1.273000e+01  1.471550e+00  5.374389e-01
   endloop
 endfacet
 facet normal  1.000000e+00  4.470573e-15  2.346338e-15
   outer loop
     vertex  1.273000e+01  0.000000e+00  3.000000e-01
     vertex  1.273000e+01  1.489237e+00  4.908020e-01
     vertex  1.273000e+01  1.477562e+00  5.130466e-01
   endloop
 endfacet
 facet normal  1.000000e+00  4.284837e-15  3.796034e-15
   outer loop
     vertex  1.273000e+01  0.000000e+00  3.000000e-01
     vertex  1.273000e+01  1.505896e+00  4.719977e-01
     vertex  1.273000e+01  1.489237e+00  4.908020e-01
   endloop
 endfacet
 facet normal  1.000000e+00  4.048497e-15  5.865261e-15
   outer loop
     vertex  1.273000e+01  0.000000e+00  3.000000e-01
     vertex  1.273000e+01  1.526571e+00  4.577266e-01
     vertex  1.273000e+01  1.505896e+00  4.719977e-01
   endloop
 endfacet
 facet normal  1.000000e+00  3.657949e-15  9.645219e-15
   outer loop
     vertex  1.273000e+01  0.000000e+00  3.000000e-01
     vertex  1.273000e+01  1.550061e+00  4.488182e-01
     vertex  1.273000e+01  1.526571e+00  4.577266e-01
   endloop
 endfacet
 facet normal  1.000000e+00  4.808886e-15 -0.000000e+00
   outer loop
     vertex  1.273000e+01  0.000000e+00  3.000000e-01
     vertex  1.273000e+01  1.477562e+00  5.869534e-01
     vertex  1.273000e+01  0.000000e+00  1.500000e+00
   endloop
 endfacet
 facet normal  1.000000e+00  0.000000e+00  4.873741e-14
   outer loop
     vertex  1.273000e+01  3.150000e+00  3.000000e-01
     vertex  1.273000e+01  1.575000e+00  4.457900e-01
     vertex  1.273000e+01  0.000000e+00  3.000000e-01
   endloop
 endfacet
 facet normal  1.000000e+00  2.559879e-15  2.108250e-14
   outer loop
     vertex  1.273000e+01  1.575000e+00  4.457900e-01
     vertex  1.273000e+01  1.550061e+00  4.488182e-01
     vertex  1.273000e+01  0.000000e+00  3.000000e-01
   endloop
 endfacet
 facet normal  1.000000e+00 -2.559879e-15  2.108250e-14
   outer loop
     vertex  1.273000e+01  3.150000e+00  3.000000e-01
     vertex  1.273000e+01  1.599939e+00  4.488182e-01
     vertex  1.273000e+01  1.575000e+00  4.457900e-01
   endloop
 endfacet
endsolid
