solid 
 facet normal -1.000000e+00  0.000000e+00  0.000000e+00
   outer loop
     vertex  1.103000e+01  0.000000e+00  3.000000e-01
     vertex  1.103000e+01  0.000000e+00  8.000000e-01
     vertex  1.103000e+01  3.150000e+00  8.000000e-01
   endloop
 endfacet
 facet normal -1.000000e+00  0.000000e+00  0.000000e+00
   outer loop
     vertex  1.103000e+01  0.000000e+00  3.000000e-01
     vertex  1.103000e+01  3.150000e+00  8.000000e-01
     vertex  1.103000e+01  3.150000e+00  3.000000e-01
   endloop
 endfacet
endsolid
